<?xml version="1.0" encoding="utf-8"?>
<!-- Generator: Adobe Illustrator 21.0.2, SVG Export Plug-In . SVG Version: 6.00 Build 0)  -->
<svg version="1.1" id="Layer_1" xmlns="http://www.w3.org/2000/svg" xmlns:xlink="http://www.w3.org/1999/xlink" x="0px" y="0px"
	 viewBox="0 0 482.3 211.7" style="enable-background:new 0 0 482.3 211.7;" xml:space="preserve">
<style type="text/css">
	.st0{fill:none;stroke:#3B51A3;stroke-width:3;stroke-miterlimit:10;}
	.st1{fill:none;stroke:#FFFFFF;stroke-width:3;stroke-miterlimit:10;}
	.st2{fill:none;stroke:#ED1C50;stroke-width:3;stroke-miterlimit:10;}
	.st3{fill:none;stroke:#EA9C22;stroke-width:3;stroke-miterlimit:10;}
	.st4{fill:none;stroke:#5EC8D5;stroke-width:3;stroke-miterlimit:10;}
	.st5{fill:none;stroke:#5FBB46;stroke-width:3;stroke-miterlimit:10;}
	.st6{font-family:'Baskerville-SemiBold';}
	.st7{font-size:99px;}
	.st8{fill:#FFFFFF;}
	.st9{fill:none;stroke:#000000;stroke-width:5;stroke-miterlimit:10;}
	.st10{fill:none;stroke:#FFFFFF;stroke-width:5;stroke-miterlimit:10;}
	.st11{fill:none;stroke:#000000;stroke-width:1.75;stroke-miterlimit:10;}
	.st12{font-family:'Futura-CondensedMedium';}
	.st13{font-size:20px;}
</style>
<circle class="st0" cx="12.9" cy="114.7" r="10.6"/>
<circle class="st1" cx="13.1" cy="115" r="10.6"/>
<circle class="st0" cx="13.5" cy="115" r="10.6"/>
<circle class="st2" cx="28.7" cy="89.1" r="10.6"/>
<circle class="st1" cx="29" cy="89.4" r="10.6"/>
<circle class="st2" cx="29.4" cy="89.4" r="10.6"/>
<circle class="st3" cx="54.6" cy="104.9" r="10.6"/>
<circle class="st1" cx="54.9" cy="105.2" r="10.6"/>
<circle class="st3" cx="55.3" cy="105.2" r="10.6"/>
<circle class="st4" cx="59.2" cy="133.6" r="10.6"/>
<circle class="st1" cx="59.4" cy="133.9" r="10.6"/>
<circle class="st4" cx="59.9" cy="133.9" r="10.6"/>
<circle class="st5" cx="29.4" cy="143" r="10.6"/>
<circle class="st1" cx="29.6" cy="143.3" r="10.6"/>
<circle class="st5" cx="30.1" cy="143.3" r="10.6"/>
<text transform="matrix(1 0 0 1 75.3989 136.5137)" class="st6 st7">RD</text>
<text transform="matrix(1 0 0 1 246.3115 136.5137)" class="st6 st7">MCL</text>
<text transform="matrix(1 0 0 1 76.2935 137.5137)" class="st8 st6 st7">RD</text>
<text transform="matrix(1 0 0 1 247.2061 137.5137)" class="st8 st6 st7">MCL</text>
<g>
	<path class="st9" d="M58.8,42.8c12.4-16,29.8-28.3,50.8-34.3c52.4-15,107,15.3,122,67.7s-15.3,107-67.7,122
		c-40.6,11.6-82.5-4-106.3-36"/>
	<g>
		<polygon points="42.4,74.1 84.3,40.3 60.8,40.8 48.7,20.7 		"/>
	</g>
</g>
<g>
	<path d="M150.6,138.5H133c-0.6-0.7-1.4-1.7-2.4-3.1c-1-1.4-2-2.9-3.1-4.8c-1.1-1.8-2.1-3.3-2.8-4.5l-4.4-7.3
		c-2-3.3-3.5-5.5-4.5-6.7s-2.2-2-3.5-2.3s-3.5-0.5-6.6-0.5h-2.5v17.1c0,1.8,0.2,3.3,0.6,4.4s1.3,1.9,2.7,2.5
		c1.4,0.6,3.5,0.9,6.3,0.9v4.4H79.9v-4.4c4,0,6.6-0.6,7.7-1.7c1.1-1.2,1.7-3.2,1.7-6V85c0-2.8-0.6-4.8-1.7-6s-3.7-1.8-7.8-1.8v-4.5
		L95,72.2c1.2-0.1,2.5-0.1,4-0.1s2.9,0,4.2,0c1,0,2.7,0,5,0.1c3.3,0.1,6.3,0.3,9.1,0.6c2.8,0.3,5.1,0.7,6.7,1.1
		c2.4,0.6,4.7,1.6,6.9,3s3.9,3.3,5.3,5.6s2.1,5,2.1,8.1c0,2.2-0.5,4.3-1.4,6.4c-1,2.1-2.5,3.9-4.6,5.5s-4.9,2.9-8.3,3.8
		c2.4,1.4,4.4,3.1,6,5.1s4.2,5.8,7.7,11.3c2,3.1,3.7,5.5,5,7.1s2.5,2.7,3.6,3.2c1.1,0.6,2.5,0.9,4.2,1.1L150.6,138.5L150.6,138.5z
		 M123.4,90.4c0-5.2-1.6-8.7-4.8-10.4s-7.3-2.6-12.4-2.6c-0.7,0-1.3,0-1.7,0c-0.4,0-0.9,0-1.4,0v26.3h3c4.9,0,8.9-0.8,12.3-2.4
		C121.8,99.9,123.4,96.2,123.4,90.4z"/>
	<path d="M222.3,106.3c0,4.7-0.8,9-2.4,12.8c-1.6,3.8-3.7,7-6.2,9.5s-5.3,4.5-8.2,5.8c-6.1,2.7-13.6,4.1-22.5,4.1h-30v-4.4
		c2.8,0,4.9-0.3,6.3-0.8c1.4-0.5,2.3-1.3,2.8-2.4c0.4-1.1,0.7-2.6,0.7-4.5V85c0-2.8-0.6-4.8-1.7-6s-3.8-1.7-8-1.7v-4.5l14.1-0.3
		c0.5,0,2.4,0,5.9-0.1c3.4-0.1,5.4-0.1,6-0.1c5.4,0,9.9,0.3,13.7,0.9s7.2,1.5,10.3,2.8c2.9,1.2,5.5,2.8,7.9,4.9s4.5,4.4,6.1,7.1
		c1.7,2.7,2.9,5.6,3.8,8.7C221.8,99.6,222.3,102.9,222.3,106.3z M206.6,106c0-6.8-1.3-12.5-3.9-17.1c-2.6-4.6-6.1-7.8-10.6-9.5
		c-1.9-0.8-4-1.3-6.2-1.5s-5.3-0.3-9.4-0.3v46.1c0,2.6,0.1,4.6,0.4,5.8c0.3,1.2,1,2.1,2.3,2.8c1.3,0.6,3.2,0.9,5.8,0.9
		c7.8,0,13.4-2.7,16.6-8.2C205,119.5,206.6,113.2,206.6,106z"/>
</g>
<g>
	<path d="M341.7,138.5h-32.9v-4.4c2.8,0,4.9-0.3,6.2-0.8c1.3-0.6,2.2-1.4,2.6-2.5s0.6-2.6,0.6-4.4V85.2l-24.8,53.3h-2.9l-25.1-53.3
		v39c0,2.1,0.1,3.6,0.2,4.7c0.1,1.1,0.5,2,1.1,2.8s1.5,1.3,2.8,1.7s3.1,0.6,5.4,0.6v4.4h-24.3V134c2.3,0,4.1-0.2,5.4-0.6
		c1.3-0.4,2.2-1,2.8-1.7s0.9-1.7,1.1-2.8s0.2-2.7,0.2-4.7V87.1c0-2.8-0.1-4.8-0.4-6s-1.1-2.2-2.4-2.8c-1.3-0.6-3.5-0.9-6.6-0.9V73
		h24l21.8,46.3L318.3,73h23.4v4.4c-4,0-6.6,0.6-7.8,1.8c-1.2,1.2-1.8,3.2-1.8,6v41.2c0,1.8,0.2,3.2,0.6,4.3s1.3,1.9,2.7,2.5
		c1.4,0.6,3.5,0.9,6.3,0.9V138.5L341.7,138.5z"/>
	<path d="M411.2,137.8h-4.5c-0.7-2.8-1.8-5.3-3.3-7.4c-2.4,2.5-5.3,4.7-8.4,6.6c-3.2,1.8-7.4,2.8-12.8,2.8c-5.9,0-11.4-1.4-16.4-4.3
		c-5-2.9-9.1-6.9-12.1-12c-3-5.1-4.5-10.9-4.5-17.4c0-4.6,0.8-8.9,2.4-13.1s3.9-7.8,7-11c3-3.2,6.6-5.6,10.8-7.4
		c4.2-1.8,8.7-2.7,13.7-2.7c8.2,0,15,2.7,20.3,8c0.7-1.4,1.4-3.4,2.1-6h4.4l0.8,24.1h-4.6c-0.8-4.1-2.4-7.7-4.5-10.9
		c-2.2-3.2-4.8-5.6-7.8-7.3c-3-1.7-6.2-2.5-9.5-2.5c-3.7,0-7,1-9.9,3s-5.2,5.1-6.9,9.2c-1.7,4.1-2.5,9.3-2.5,15.4c0,6,0.7,11,2.1,15
		s3.1,7,5.1,9s4.1,3.4,6.2,4.1c2.1,0.7,4,1.1,5.8,1.1c4,0,7.5-1.1,10.7-3.2c3.2-2.1,5.8-4.8,7.8-8s3.4-6.5,4.1-9.6h4.6L411.2,137.8
		L411.2,137.8z"/>
	<path d="M478.6,116.6l-0.4,21.9h-58.4v-4.4c4,0,6.6-0.6,7.8-1.7s1.7-3.2,1.7-6V85.1c0-1.9-0.2-3.4-0.6-4.4s-1.3-1.9-2.7-2.4
		s-3.5-0.9-6.3-0.9V73h33v4.4c-2.7,0-4.8,0.3-6.2,0.8c-1.4,0.5-2.3,1.3-2.8,2.4c-0.4,1-0.7,2.6-0.7,4.5v37.7c0,3,0.1,5.1,0.4,6.4
		c0.3,1.3,1.1,2.3,2.4,2.9c1.3,0.7,3.4,1,6.3,1c3.7,0,7-0.3,9.7-0.8c2.8-0.6,5.4-2.1,7.7-4.5c2.4-2.4,3.8-6.2,4.4-11.2L478.6,116.6
		L478.6,116.6z"/>
</g>
<g>
	<path class="st10" d="M60.3,45.2c12.4-16,29.8-28.3,50.8-34.3c52.4-15,107,15.3,122,67.7s-15.3,107-67.7,122
		c-40.6,11.6-82.5-4-106.3-36"/>
	<g>
		<polygon class="st8" points="44,76.5 85.8,42.7 62.3,43.2 50.2,23.1 		"/>
	</g>
</g>
<g>
	<path class="st9" d="M61.6,46.7c12.4-16,29.8-28.3,50.8-34.3c52.4-15,107,15.3,122,67.7s-15.3,107-67.7,122
		c-40.6,11.6-82.5-4-106.3-36"/>
	<g>
		<polygon points="45.2,78 87.1,44.2 63.6,44.8 51.5,24.6 		"/>
	</g>
</g>
<polygon points="45.2,78 42.4,74.1 44.5,72.4 45.7,74.1 "/>
<polygon points="58.3,167.6 55.5,163.7 55.8,163.5 58.6,167.3 "/>
<polygon class="st8" points="58.6,167.3 56.5,164.4 59.8,161.9 62,164.9 "/>
<polygon points="62,164.9 59.2,161.1 59.5,160.9 62.4,164.7 "/>
<polygon points="58.6,167.3 57.6,165.9 60.9,163.4 62,164.9 "/>
<polygon points="82.2,44.3 81.2,42.8 84.3,40.3 87.1,44.2 "/>
<polygon points="51.3,26.1 48.4,22.5 48.7,20.7 51.5,24.6 "/>
<g>
	<g>
		<line class="st11" x1="398.2" y1="34.1" x2="381.1" y2="49.9"/>
		<g>
			<polygon points="372,58.3 380,41.3 381.8,49.3 389.6,51.7 			"/>
		</g>
	</g>
</g>
<text transform="matrix(1 0 0 1 399.25 30.75)" class="st12 st13">Click me!</text>
</svg>
