<?xml version="1.0" encoding="utf-8"?>
<!-- Generator: Adobe Illustrator 16.0.0, SVG Export Plug-In . SVG Version: 6.00 Build 0)  -->
<!DOCTYPE svg PUBLIC "-//W3C//DTD SVG 1.1//EN" "http://www.w3.org/Graphics/SVG/1.1/DTD/svg11.dtd">
<svg version="1.1" id="Layer_1" xmlns="http://www.w3.org/2000/svg" xmlns:xlink="http://www.w3.org/1999/xlink" x="0px" y="0px"
	 width="482.334px" height="211.666px" viewBox="0 0 482.334 211.666" enable-background="new 0 0 482.334 211.666"
	 xml:space="preserve">
<circle fill="none" stroke="#3B51A3" stroke-width="3" stroke-miterlimit="10" cx="12.86" cy="114.726" r="10.593"/>
<circle fill="none" stroke="#FFFFFF" stroke-width="3" stroke-miterlimit="10" cx="13.117" cy="115.03" r="10.593"/>
<circle fill="none" stroke="#3B51A3" stroke-width="3" stroke-miterlimit="10" cx="13.54" cy="115.03" r="10.593"/>
<circle fill="none" stroke="#ED1C50" stroke-width="3" stroke-miterlimit="10" cx="28.702" cy="89.101" r="10.593"/>
<circle fill="none" stroke="#FFFFFF" stroke-width="3" stroke-miterlimit="10" cx="28.958" cy="89.405" r="10.593"/>
<circle fill="none" stroke="#ED1C50" stroke-width="3" stroke-miterlimit="10" cx="29.382" cy="89.405" r="10.593"/>
<circle fill="none" stroke="#EA9C22" stroke-width="3" stroke-miterlimit="10" cx="54.604" cy="104.908" r="10.593"/>
<circle fill="none" stroke="#FFFFFF" stroke-width="3" stroke-miterlimit="10" cx="54.86" cy="105.212" r="10.593"/>
<circle fill="none" stroke="#EA9C22" stroke-width="3" stroke-miterlimit="10" cx="55.284" cy="105.212" r="10.593"/>
<circle fill="none" stroke="#5EC8D5" stroke-width="3" stroke-miterlimit="10" cx="59.175" cy="133.642" r="10.593"/>
<circle fill="none" stroke="#FFFFFF" stroke-width="3" stroke-miterlimit="10" cx="59.431" cy="133.946" r="10.593"/>
<circle fill="none" stroke="#5EC8D5" stroke-width="3" stroke-miterlimit="10" cx="59.854" cy="133.946" r="10.593"/>
<circle fill="none" stroke="#5FBB46" stroke-width="3" stroke-miterlimit="10" cx="29.382" cy="143.044" r="10.593"/>
<circle fill="none" stroke="#FFFFFF" stroke-width="3" stroke-miterlimit="10" cx="29.638" cy="143.348" r="10.593"/>
<circle fill="none" stroke="#5FBB46" stroke-width="3" stroke-miterlimit="10" cx="30.062" cy="143.348" r="10.593"/>
<text transform="matrix(1 0 0 1 75.3989 136.5137)" font-family="'Baskerville-SemiBold'" font-size="99">RD</text>
<text transform="matrix(1 0 0 1 246.3115 136.5137)" font-family="'Baskerville-SemiBold'" font-size="99">MCL</text>
<text transform="matrix(1 0 0 1 76.2935 137.5137)" fill="#FFFFFF" font-family="'Baskerville-SemiBold'" font-size="99">RD</text>
<text transform="matrix(1 0 0 1 247.2061 137.5137)" fill="#FFFFFF" font-family="'Baskerville-SemiBold'" font-size="99">MCL</text>
<g>
	<path fill="none" stroke="#000000" stroke-width="5" stroke-miterlimit="10" d="M58.779,42.762
		c12.406-15.984,29.825-28.308,50.77-34.296C161.934-6.511,216.542,23.814,231.519,76.2c14.978,52.386-15.348,106.994-67.733,121.97
		c-40.604,11.609-82.545-3.999-106.329-36.003"/>
	<g>
		<polygon points="42.442,74.057 84.253,40.297 60.753,40.826 48.65,20.68 		"/>
	</g>
</g>
<g>
	<path d="M150.577,138.514h-17.547c-0.645-0.708-1.443-1.74-2.393-3.094c-0.951-1.354-1.99-2.94-3.118-4.762
		c-1.128-1.82-2.063-3.327-2.804-4.52l-4.447-7.348c-1.999-3.287-3.504-5.535-4.52-6.743c-1.015-1.209-2.175-1.982-3.48-2.32
		c-1.305-0.339-3.521-0.508-6.646-0.508h-2.465v17.112c0,1.805,0.193,3.255,0.58,4.351c0.387,1.096,1.297,1.934,2.731,2.514
		c1.434,0.58,3.521,0.87,6.26,0.87v4.447H79.855v-4.447c3.996,0,6.566-0.58,7.71-1.74c1.143-1.16,1.716-3.158,1.716-5.994V84.953
		c0-2.804-0.556-4.793-1.668-5.97c-1.111-1.176-3.698-1.765-7.758-1.765v-4.544l15.179-0.483c1.16-0.064,2.49-0.112,3.988-0.145
		c1.499-0.032,2.892-0.048,4.182-0.048c0.999,0,2.659,0.033,4.979,0.097c3.254,0.097,6.3,0.29,9.136,0.58
		c2.835,0.29,5.076,0.661,6.719,1.112c2.417,0.613,4.713,1.628,6.888,3.045c2.176,1.418,3.947,3.287,5.317,5.607
		c1.37,2.32,2.055,5.012,2.055,8.073c0,2.192-0.476,4.319-1.426,6.381c-0.951,2.063-2.482,3.9-4.593,5.511
		c-2.111,1.612-4.891,2.885-8.338,3.819c2.352,1.386,4.351,3.102,5.994,5.148c1.644,2.047,4.221,5.809,7.734,11.287
		c2.03,3.126,3.706,5.486,5.027,7.082c1.321,1.595,2.538,2.675,3.65,3.238c1.111,0.564,2.521,0.927,4.229,1.088V138.514z
		 M123.41,90.416c0-5.221-1.588-8.685-4.762-10.393c-3.174-1.708-7.323-2.562-12.447-2.562c-0.709,0-1.265,0.008-1.668,0.024
		c-0.403,0.017-0.862,0.024-1.377,0.024v26.345h3.045c4.866,0,8.95-0.789,12.254-2.369C121.758,99.907,123.41,96.216,123.41,90.416z
		"/>
	<path d="M222.265,106.319c0,4.737-0.806,9.016-2.417,12.834c-1.612,3.819-3.69,7.002-6.236,9.547
		c-2.546,2.546-5.269,4.464-8.169,5.752c-6.124,2.707-13.616,4.061-22.478,4.061h-29.922v-4.447c2.771,0,4.866-0.266,6.284-0.798
		c1.417-0.531,2.344-1.329,2.78-2.393c0.435-1.063,0.652-2.578,0.652-4.544V84.953c0-2.835-0.58-4.834-1.74-5.994
		s-3.819-1.74-7.976-1.74v-4.544l14.067-0.29c0.483,0,2.449-0.032,5.897-0.097c3.448-0.064,5.446-0.097,5.994-0.097
		c5.381,0,9.95,0.29,13.704,0.87c3.754,0.58,7.194,1.515,10.321,2.804c2.868,1.16,5.511,2.779,7.928,4.858
		c2.417,2.078,4.455,4.447,6.115,7.105c1.66,2.659,2.94,5.552,3.843,8.677C221.813,99.633,222.265,102.904,222.265,106.319z
		 M206.603,106.029c0-6.799-1.298-12.496-3.891-17.088c-2.595-4.593-6.115-7.774-10.562-9.547c-1.934-0.773-3.988-1.264-6.163-1.474
		c-2.176-0.209-5.293-0.314-9.354-0.314v46.068c0,2.643,0.128,4.568,0.387,5.777c0.257,1.208,1.015,2.127,2.272,2.755
		c1.257,0.629,3.206,0.943,5.849,0.943c7.831,0,13.366-2.739,16.605-8.218C204.983,119.452,206.603,113.152,206.603,106.029z"/>
</g>
<g>
	<path d="M341.743,138.514h-32.871v-4.447c2.836,0,4.914-0.282,6.236-0.846c1.321-0.563,2.183-1.385,2.586-2.466
		c0.402-1.079,0.604-2.553,0.604-4.423V85.243l-24.75,53.271h-2.948l-25.089-53.271v39.01c0,2.063,0.072,3.642,0.218,4.737
		c0.145,1.096,0.515,2.03,1.111,2.804c0.596,0.773,1.539,1.346,2.828,1.716c1.288,0.371,3.077,0.556,5.365,0.556v4.447h-24.266
		v-4.447c2.32,0,4.116-0.193,5.39-0.58c1.272-0.387,2.199-0.967,2.779-1.74s0.935-1.699,1.063-2.779
		c0.128-1.08,0.193-2.65,0.193-4.713V87.128c0-2.771-0.145-4.769-0.436-5.994c-0.289-1.224-1.087-2.151-2.393-2.78
		c-1.305-0.628-3.504-0.942-6.598-0.942v-4.447h23.977l21.752,46.261l21.802-46.261h23.444v4.447c-4.028,0-6.631,0.588-7.807,1.765
		c-1.177,1.177-1.764,3.166-1.764,5.97v41.186c0,1.773,0.193,3.207,0.58,4.302c0.387,1.096,1.28,1.942,2.683,2.538
		c1.401,0.597,3.505,0.895,6.308,0.895V138.514z"/>
	<path d="M411.16,137.837h-4.544c-0.677-2.771-1.789-5.252-3.336-7.444c-2.449,2.546-5.253,4.737-8.41,6.574
		c-3.159,1.837-7.429,2.755-12.811,2.755c-5.897,0-11.368-1.434-16.411-4.302c-5.044-2.868-9.063-6.872-12.062-12.013
		c-2.996-5.14-4.495-10.932-4.495-17.378c0-4.576,0.813-8.943,2.441-13.1c1.627-4.157,3.947-7.814,6.961-10.973
		c3.013-3.158,6.605-5.639,10.779-7.444c4.173-1.804,8.741-2.707,13.704-2.707c8.186,0,14.953,2.675,20.303,8.024
		c0.709-1.385,1.402-3.399,2.079-6.042h4.351l0.773,24.122h-4.641c-0.839-4.092-2.353-7.734-4.544-10.925
		c-2.192-3.19-4.794-5.632-7.807-7.323c-3.014-1.692-6.163-2.538-9.45-2.538c-3.674,0-6.979,1.008-9.91,3.021
		c-2.933,2.014-5.229,5.084-6.889,9.208c-1.66,4.125-2.489,9.266-2.489,15.42c0,5.994,0.692,10.981,2.079,14.961
		c1.385,3.981,3.101,6.985,5.147,9.016c2.046,2.03,4.101,3.408,6.163,4.133c2.062,0.726,3.996,1.088,5.801,1.088
		c3.965,0,7.533-1.063,10.708-3.19c3.174-2.127,5.776-4.81,7.807-8.049c2.03-3.238,3.384-6.453,4.061-9.644h4.641V137.837z"/>
	<path d="M478.643,116.616l-0.435,21.898h-58.395v-4.447c4.027,0,6.622-0.58,7.782-1.74s1.74-3.158,1.74-5.994V85.146
		c0-1.901-0.193-3.375-0.58-4.423c-0.387-1.047-1.281-1.861-2.683-2.441c-1.402-0.58-3.489-0.87-6.26-0.87v-4.447h32.967v4.447
		c-2.739,0-4.81,0.274-6.211,0.822c-1.402,0.548-2.32,1.346-2.756,2.393c-0.435,1.047-0.652,2.554-0.652,4.52v37.705
		c0,2.965,0.145,5.092,0.436,6.381c0.289,1.29,1.079,2.265,2.368,2.925c1.288,0.661,3.399,0.991,6.333,0.991
		c3.705,0,6.952-0.282,9.74-0.846c2.787-0.563,5.365-2.062,7.734-4.495c2.368-2.433,3.843-6.164,4.423-11.191H478.643z"/>
</g>
<g>
	<path fill="none" stroke="#FFFFFF" stroke-width="5" stroke-miterlimit="10" d="M60.347,45.159
		c12.406-15.984,29.825-28.308,50.77-34.296C163.503-4.115,218.11,26.21,233.087,78.596c14.978,52.386-15.348,106.994-67.733,121.97
		c-40.604,11.609-82.545-3.999-106.329-36.003"/>
	<g>
		<polygon fill="#FFFFFF" points="44.011,76.454 85.821,42.693 62.321,43.222 50.219,23.076 		"/>
	</g>
</g>
<g>
	<path fill="none" stroke="#000000" stroke-width="5" stroke-miterlimit="10" d="M61.586,46.696
		c12.406-15.984,29.825-28.308,50.771-34.296c52.386-14.977,106.993,15.348,121.97,67.734
		c14.978,52.386-15.348,106.994-67.733,121.97c-40.604,11.609-82.545-3.999-106.329-36.003"/>
	<g>
		<polygon points="45.25,77.991 87.061,44.231 63.561,44.76 51.458,24.614 		"/>
	</g>
</g>
</svg>
